<?xml version="1.0" encoding="UTF-8"?><svg id="_レイヤー_1" xmlns="http://www.w3.org/2000/svg" viewBox="0 0 84 50"><defs><style>.cls-1{fill:#00a0e9;}.cls-1,.cls-2{stroke-width:0px;}.cls-2{fill:#717071;}</style></defs><path class="cls-1" d="m45.29,38.6h-8.55V-.06h8.55v38.66Z"/><path class="cls-1" d="m83.2,6.57h-9.16v32.03h-8.55V6.57h-9.08V-.06h26.79v6.63Z"/><polygon class="cls-1" points="24.93 6.57 24.93 -.06 2 -.06 2 38.6 10.55 38.6 10.51 22.17 24.93 22.17 24.93 15.54 10.49 15.54 10.47 6.57 24.93 6.57"/><path class="cls-2" d="m2.49,44.96v1.11h1.37v.45h-1.37v1.94h-.49v-3.95h1.91v.45h-1.42Z"/><path class="cls-2" d="m5.33,46.01v1.36c0,.39.1.74.57.74s.57-.35.57-.74v-1.36h.47v1.41c0,.67-.31,1.13-1.04,1.13s-1.04-.46-1.04-1.13v-1.41h.47Z"/><path class="cls-2" d="m8.51,46.93l.92-.92h.62l-1.05,1.02,1.15,1.44h-.61l-.87-1.12-.16.16v.95h-.47v-4.55h.47v3.02Z"/><path class="cls-2" d="m11.33,46.01v1.36c0,.39.1.74.57.74s.57-.35.57-.74v-1.36h.47v1.41c0,.67-.31,1.13-1.04,1.13s-1.04-.46-1.04-1.13v-1.41h.47Z"/><path class="cls-2" d="m16.4,47.24c0,.74-.58,1.31-1.31,1.31s-1.31-.57-1.31-1.31.58-1.3,1.31-1.3,1.31.57,1.31,1.3Zm-2.15,0c0,.46.37.85.84.85s.84-.39.84-.85-.37-.85-.84-.85-.84.39-.84.85Z"/><path class="cls-2" d="m17.78,46.93l.92-.92h.62l-1.05,1.02,1.15,1.44h-.61l-.88-1.12-.16.16v.95h-.47v-4.55h.47v3.02Z"/><path class="cls-2" d="m22.44,48.46h-.47v-.38h-.01c-.19.28-.48.47-.83.47-.75,0-1.17-.62-1.17-1.33s.45-1.28,1.16-1.28c.36,0,.65.19.85.48h.01v-.41h.47v2.45Zm-.45-1.23c0-.48-.29-.88-.8-.88s-.78.42-.78.88.28.89.78.89.8-.41.8-.89Z"/><path class="cls-2" d="m25.99,48.46h-.49v-3.95h.49v3.95Z"/><path class="cls-2" d="m27.59,46.34h.01c.15-.26.44-.4.74-.4.69,0,.87.47.87,1.06v1.46h-.47v-1.4c0-.42-.06-.7-.54-.7-.61,0-.61.54-.61.98v1.13h-.47v-2.45h.47v.33Z"/><path class="cls-2" d="m31.29,46.57c-.06-.12-.18-.22-.31-.22s-.26.1-.26.24c0,.21.28.31.57.44.29.13.56.31.56.7,0,.47-.39.81-.84.81-.36,0-.72-.21-.85-.55l.4-.18c.1.18.22.31.45.31.2,0,.37-.14.37-.35,0-.13-.06-.19-.17-.27l-.46-.25c-.27-.15-.47-.28-.47-.62,0-.4.32-.71.72-.71.3,0,.54.16.67.43l-.38.2Z"/><path class="cls-2" d="m33.3,48.46h-.47v-2.01h-.26v-.44h.26v-.94h.47v.94h.46v.44h-.46v2.01Z"/><path class="cls-2" d="m35.13,44.89c0,.18-.15.32-.33.32s-.32-.14-.32-.32.15-.33.32-.33.33.15.33.33Zm-.09,3.57h-.47v-2.45h.47v2.45Z"/><path class="cls-2" d="m36.78,48.46h-.47v-2.01h-.26v-.44h.26v-.94h.47v.94h.46v.44h-.46v2.01Z"/><path class="cls-2" d="m38.39,46.01v1.36c0,.39.1.74.57.74s.57-.35.57-.74v-1.36h.47v1.41c0,.67-.31,1.13-1.04,1.13s-1.04-.46-1.04-1.13v-1.41h.47Z"/><path class="cls-2" d="m41.61,48.46h-.47v-2.01h-.26v-.44h.26v-.94h.47v.94h.46v.44h-.46v2.01Z"/><path class="cls-2" d="m43.06,47.31c0,.42.29.81.74.81.36,0,.55-.18.73-.48l.4.22c-.23.42-.66.67-1.14.67-.75,0-1.2-.57-1.2-1.29s.4-1.32,1.19-1.32,1.15.57,1.15,1.3v.07h-1.87Zm1.4-.36c-.06-.37-.3-.61-.68-.61s-.64.26-.7.61h1.37Z"/><path class="cls-2" d="m50.13,47.24c0,.74-.58,1.31-1.31,1.31s-1.31-.57-1.31-1.31.57-1.3,1.31-1.3,1.31.57,1.31,1.3Zm-2.15,0c0,.46.37.85.84.85s.84-.39.84-.85-.37-.85-.84-.85-.84.39-.84.85Z"/><path class="cls-2" d="m52.22,44.39c-.09-.04-.21-.1-.31-.1-.33,0-.33.43-.33.67v1.05h.65v.44h-.65v2.01h-.47v-2.01h-.22v-.44h.22v-1.19c0-.53.18-.96.79-.96.12,0,.23.02.33.06v.48Z"/><path class="cls-2" d="m55.97,48.46h-.49v-3.5h-.94v-.45h2.37v.45h-.94v3.5Z"/><path class="cls-2" d="m57.45,47.31c0,.42.29.81.74.81.36,0,.56-.18.73-.48l.4.22c-.23.42-.66.67-1.14.67-.75,0-1.21-.57-1.21-1.29s.4-1.32,1.19-1.32,1.15.57,1.15,1.3v.07h-1.87Zm1.4-.36c-.06-.37-.3-.61-.68-.61s-.64.26-.7.61h1.37Z"/><path class="cls-2" d="m61.97,46.71c-.19-.21-.42-.33-.7-.33-.46,0-.82.41-.82.86,0,.5.35.87.85.87.27,0,.49-.13.67-.33v.6c-.21.12-.43.16-.68.16-.72,0-1.31-.56-1.31-1.29s.59-1.32,1.34-1.32c.22,0,.46.05.65.16v.61Z"/><path class="cls-2" d="m63.4,43.91v2.43h0c.15-.26.44-.4.74-.4.69,0,.87.47.87,1.06v1.46h-.47v-1.4c0-.42-.06-.7-.54-.7-.61,0-.61.54-.61.98v1.13h-.47v-4.55h.47Z"/><path class="cls-2" d="m66.58,46.34h.01c.15-.26.44-.4.74-.4.69,0,.87.47.87,1.06v1.46h-.47v-1.4c0-.42-.06-.7-.54-.7-.61,0-.61.54-.61.98v1.13h-.47v-2.45h.47v.33Z"/><path class="cls-2" d="m71.69,47.24c0,.74-.58,1.31-1.31,1.31s-1.31-.57-1.31-1.31.58-1.3,1.31-1.3,1.31.57,1.31,1.3Zm-2.15,0c0,.46.37.85.84.85s.84-.39.84-.85-.37-.85-.84-.85-.84.39-.84.85Z"/><path class="cls-2" d="m73.06,48.46h-.47v-4.55h.47v4.55Z"/><path class="cls-2" d="m76.58,47.24c0,.74-.58,1.31-1.31,1.31s-1.31-.57-1.31-1.31.58-1.3,1.31-1.3,1.31.57,1.31,1.3Zm-2.15,0c0,.46.37.85.84.85s.84-.39.84-.85-.37-.85-.84-.85-.84.39-.84.85Z"/><path class="cls-2" d="m79.75,48.41c0,.84-.24,1.45-1.19,1.45-.68,0-1.17-.42-1.18-1.11h.47c0,.44.3.69.73.69.58,0,.7-.4.7-.9v-.47h-.01c-.19.28-.49.47-.83.47-.75,0-1.17-.62-1.17-1.33s.45-1.28,1.15-1.28c.37,0,.66.19.85.49h.01v-.42h.47v2.4Zm-.45-1.18c0-.48-.29-.88-.8-.88s-.77.42-.77.88.28.89.77.89.8-.41.8-.89Z"/><path class="cls-2" d="m80.41,46.01h.55l.83,1.56.77-1.56h.53l-1.98,3.86h-.53l.96-1.82-1.12-2.03Z"/></svg>